<?xml version="1.0" encoding="utf-8"?>
<!-- Generator: Adobe Illustrator 25.2.1, SVG Export Plug-In . SVG Version: 6.00 Build 0)  -->
<svg version="1.1" id="Capa_1" xmlns="http://www.w3.org/2000/svg" xmlns:xlink="http://www.w3.org/1999/xlink" x="0px" y="0px"
	 viewBox="0 0 319.7 329.2" style="enable-background:new 0 0 319.7 329.2;" xml:space="preserve">
<style type="text/css">
	.st0{fill:#FFFFFF;}
</style>
<g id="Capa_2_1_">
	<g id="Capa_1-2">
		<path class="st0" d="M262,155.8l-66.9-66.9c-4.7-4.7-4.7-12.3,0-17.1c0,0,0,0,0,0l10-10c4.7-4.7,12.4-4.7,17.1,0l94,94
			c4.7,4.7,4.7,12.3,0,17.1c0,0,0,0,0,0l-94,94c-4.7,4.7-12.4,4.7-17.1,0l-10-10c-4.7-4.7-4.7-12.3,0-17.1c0,0,0,0,0,0l66.9-66.9
			C266.7,168.2,266.7,160.5,262,155.8C262,155.8,262,155.8,262,155.8z"/>
		<path class="st0" d="M209,172.7l-94,94c-4.7,4.7-12.4,4.7-17.1,0l-10-10c-4.7-4.7-4.7-12.4,0-17.1l66.9-66.9
			c4.7-4.7,4.7-12.4,0-17.1L88,88.7c-4.7-4.7-4.7-12.4,0-17.1l10-10c4.7-4.7,12.4-4.7,17.1,0l94,94C213.8,160.4,213.7,168,209,172.7
			C209,172.7,209,172.7,209,172.7z"/>
		<path class="st0" d="M57.6,155.7c-4.7,4.7-4.7,12.3,0,17.1l19.8,19.8c4.6,4.6,4.6,12.1,0,16.7l-10.3,10.3
			c-4.6,4.6-12.1,4.6-16.7,0L3.5,172.7c-4.7-4.7-4.7-12.3,0-17.1l46.9-46.8c4.6-4.6,12.1-4.6,16.7,0l10.3,10.3
			c4.6,4.6,4.6,12.1,0,16.7L57.6,155.7z"/>
		<circle class="st0" cx="160.2" cy="26.2" r="26.2"/>
		<circle class="st0" cx="160.2" cy="303.1" r="26.2"/>
	</g>
</g>
</svg>
